<svg width="68" height="56" viewBox="0 0 68 56" fill="none" xmlns="http://www.w3.org/2000/svg">
<path d="M9.45105 6.22222C9.45105 2.8 12.2864 0 15.7517 0C19.2171 0 22.0524 2.8 22.0524 6.22222C22.0524 9.64444 19.2171 12.4444 15.7517 12.4444C12.2864 12.4444 9.45105 9.64444 9.45105 6.22222ZM37.8042 56C36.04 56 34.5908 54.6311 34.4963 52.8889L33.0787 24.8889L22.0524 21.7778H3.15035C1.41766 21.7778 0 20.3778 0 18.6667C0 16.9556 1.41766 15.5556 3.15035 15.5556H18.9021L38.6233 1.64889C39.9464 0.715556 41.7736 0.933334 42.8448 2.14667C44.0419 3.54667 43.7899 5.63111 42.2777 6.68889L31.9445 14H40.9545L63.2905 1.27556C63.9675 0.862708 64.7798 0.723922 65.5579 0.888145C66.336 1.05237 67.0199 1.50692 67.4668 2.15699C67.9138 2.80705 68.0894 3.60244 67.9569 4.37724C67.8245 5.15204 67.3942 5.84642 66.7559 6.31556L42.5297 24.8889L41.1121 52.8889C41.0176 54.6311 39.5684 56 37.8042 56Z" fill="url(#paint0_linear_88_266)"/>
<path d="M9.45105 6.22222C9.45105 2.8 12.2864 0 15.7517 0C19.2171 0 22.0524 2.8 22.0524 6.22222C22.0524 9.64444 19.2171 12.4444 15.7517 12.4444C12.2864 12.4444 9.45105 9.64444 9.45105 6.22222ZM37.8042 56C36.04 56 34.5908 54.6311 34.4963 52.8889L33.0787 24.8889L22.0524 21.7778H3.15035C1.41766 21.7778 0 20.3778 0 18.6667C0 16.9556 1.41766 15.5556 3.15035 15.5556H18.9021L38.6233 1.64889C39.9464 0.715556 41.7736 0.933334 42.8448 2.14667C44.0419 3.54667 43.7899 5.63111 42.2777 6.68889L31.9445 14H40.9545L63.2905 1.27556C63.9675 0.862708 64.7798 0.723922 65.5579 0.888145C66.336 1.05237 67.0199 1.50692 67.4668 2.15699C67.9138 2.80705 68.0894 3.60244 67.9569 4.37724C67.8245 5.15204 67.3942 5.84642 66.7559 6.31556L42.5297 24.8889L41.1121 52.8889C41.0176 54.6311 39.5684 56 37.8042 56Z" stroke="black"/>
<defs>
<linearGradient id="paint0_linear_88_266" x1="33.5" y1="-2.5" x2="35.5" y2="78" gradientUnits="userSpaceOnUse">
<stop stop-color="#CCDB2C"/>
<stop offset="0.278507" stop-color="#FF8800"/>
<stop offset="0.770833" stop-color="#E44156"/>
</linearGradient>
</defs>
</svg>
