<svg width="835" height="161" viewBox="0 0 835 161" fill="none" xmlns="http://www.w3.org/2000/svg">
<g clip-path="url(#clip0)">
<path d="M152.387 27.6719C137.018 27.6719 125.035 32.4863 116.482 42.1584C107.93 51.8305 103.632 65.3195 103.632 82.6686C103.632 99.584 107.93 112.683 116.482 122.008C125.035 131.333 137.018 136.017 152.387 136.017C167.972 136.017 180.042 131.333 188.595 122.008C197.147 112.683 201.445 99.4973 201.445 82.4951C201.445 65.146 197.147 51.7004 188.508 42.0717C179.912 32.4863 167.842 27.6719 152.387 27.6719ZM174.745 115.805C169.666 120.793 162.85 123.266 154.34 123.266C143.747 123.266 135.541 119.752 129.811 112.683C124.08 105.613 121.171 95.5504 121.171 82.5385C121.171 70.7411 123.255 60.4617 127.466 51.7438C130.115 48.1005 133.414 45.3246 137.322 43.3728C141.229 41.4211 145.657 40.4669 150.52 40.4669C161.113 40.4669 169.362 44.1102 175.223 51.3968C181.084 58.6835 183.993 68.9628 183.993 82.1915C184.036 95.854 180.954 107.044 174.745 115.805Z" fill="white"/>
<path d="M233.138 68.3989C233.138 48.5341 233.312 28.1055 233.616 7.11304L215.555 8.58771C215.989 26.3706 216.207 46.8426 216.207 70.047C216.207 90.2588 216.076 111.511 215.859 133.805C219.072 133.935 221.59 133.979 223.5 133.979H233.79V131.159L233.616 114.938C233.269 100.148 233.138 84.6637 233.138 68.3989Z" fill="white"/>
<path d="M264.137 29.9706L258.493 30.1441L253.022 29.9706C252.154 29.8405 250.982 29.7971 249.549 29.7971C249.983 44.9342 250.2 63.3243 250.2 84.9674C250.2 102.317 249.983 118.668 249.549 133.979H267.61C267.263 119.058 267.132 102.75 267.132 84.9674C267.132 63.1075 267.306 44.7174 267.61 29.7971C266.177 29.7971 265.005 29.8839 264.137 29.9706Z" fill="white"/>
<path d="M258.493 0C254.412 0 251.546 0.737338 249.853 2.25539C248.16 3.77344 247.378 5.98545 247.378 8.97818C247.378 11.9709 248.203 14.1395 249.853 15.5275C251.503 16.9154 254.368 17.6094 258.493 17.6094C262.574 17.6094 265.439 16.9154 267.132 15.5275C268.782 14.1395 269.607 11.9709 269.607 8.97818C269.607 5.98545 268.782 3.77344 267.132 2.25539C265.439 0.737338 262.574 0 258.493 0Z" fill="white"/>
<path d="M376.712 7.11304L359.302 8.58771C359.302 15.0069 359.432 23.508 359.65 34.0909C360.301 41.1607 360.865 49.4449 361.299 58.9436H359.65C358.651 53.0015 356.437 47.6666 352.92 42.939C349.447 38.2547 345.062 34.6114 339.809 32.009C334.556 29.4067 328.912 28.1055 322.834 28.1055C309.549 28.1055 299.39 33.0066 292.313 42.8523C285.236 52.6979 281.72 65.7097 281.72 81.9312C281.72 98.9333 284.976 112.205 291.488 121.747C298 131.289 307.291 136.06 319.36 136.06C328.868 136.06 337.117 133.024 344.064 126.952C351.01 120.88 356.176 112.943 359.476 103.097H360.952C360.735 105.092 359.953 115.372 358.651 133.892H376.885C376.538 117.974 376.408 99.8875 376.408 79.5457C376.364 60.8954 376.495 36.7367 376.712 7.11304ZM359.476 97.4153C356.176 105.569 351.748 111.945 346.278 116.456C340.807 120.967 334.252 123.266 326.611 123.266C319.664 123.266 314.107 120.967 309.939 116.326C305.815 111.685 302.906 106.22 301.3 99.9309C299.693 93.6419 298.912 87.613 298.912 81.8878C298.912 68.3989 302.168 57.3388 308.68 48.5775C314.541 43.5028 321.097 40.9439 328.391 40.9439C333.601 40.9439 338.55 42.4185 343.326 45.3245C348.058 48.2305 351.965 52.4377 354.917 57.8159C357.913 63.2375 359.389 69.3531 359.389 76.206V97.4153H359.476Z" fill="white"/>
<path d="M479.996 103.358C479.779 92.0806 479.649 83.5362 479.649 77.6808C479.518 61.2425 476.262 48.9246 469.88 40.7272C463.455 32.5731 453.122 28.4526 438.882 28.4526C425.163 28.4526 414.613 31.5755 407.146 37.8212C399.678 44.0669 394.642 53.3487 391.994 65.7533L408.926 68.9195C410.706 59.551 414.396 52.5679 420.04 48.0572C424.251 44.7608 429.417 42.7657 435.626 42.1151C442.919 42.1151 448.52 43.5898 452.471 46.5825C456.378 49.5752 459.026 53.5655 460.416 58.5968C461.805 63.628 462.543 69.8303 462.673 77.2471V79.4157L454.034 79.0687L439.794 78.7218C425.857 78.7218 414.266 81.2808 404.975 86.4421C395.684 91.5601 391.039 99.454 391.039 110.037C391.039 115.025 392.298 119.492 394.859 123.526C397.421 127.56 400.981 130.726 405.626 132.981C410.271 135.237 415.611 136.364 421.69 136.364C428.766 136.364 435.192 134.803 441.009 131.723C446.827 128.644 451.602 124.61 455.423 119.622C459.243 114.634 461.935 109.43 463.455 103.878H465.105L462.283 134.022H480.169C480.169 123.656 480.126 115.025 479.996 108.172V103.358V103.358ZM462.76 97.8926C461.544 100.972 459.243 104.485 455.901 108.432C452.514 112.336 448.477 115.719 443.788 118.538C439.099 121.357 434.15 122.745 428.94 122.745C422.08 122.745 416.87 121.401 413.267 118.755C409.664 116.109 407.884 111.859 407.884 106.003C407.884 98.066 411.791 92.6011 419.562 89.6951C427.377 86.7891 435.626 85.3144 444.352 85.3144C451.212 85.3144 457.333 85.4879 462.76 85.7915V97.8926Z" fill="white"/>
<path d="M550.632 67.2712C543.555 89.0444 538.302 104.702 534.872 114.331H533.396L530.401 105.7C518.027 71.2615 509.301 46.0619 504.221 30.144H485.466C491.978 48.3606 502.485 76.5964 516.985 114.808C518.201 118.234 519.373 120.49 520.545 121.617C521.718 122.702 523.281 123.266 525.278 123.266C527.275 123.266 529.011 122.702 530.487 121.531C531.964 120.36 533.179 119.015 534.047 117.454H535.697C532.485 126.085 528.447 134.629 523.584 143.13C514.728 143 504.699 142.393 493.411 141.309L491.761 155.882C497.97 158.181 504.308 159.352 510.82 159.352C517.463 159.352 523.02 158.181 527.579 155.795C532.094 153.41 536.001 149.766 539.257 144.778C542.513 139.791 545.639 133.198 548.635 124.914C557.014 101.839 567.13 72.7362 578.982 37.6042L581.457 30.144H562.875L550.632 67.2712Z" fill="white"/>
<path d="M604.857 29.9706L599.213 30.1441L593.743 29.9706C592.875 29.8405 591.703 29.7971 590.27 29.7971C590.704 44.9342 590.921 63.3243 590.921 84.9674C590.921 102.317 590.704 118.668 590.27 133.979H608.33C607.983 119.058 607.853 102.75 607.853 84.9674C607.853 63.1075 608.027 44.7174 608.33 29.7971C606.898 29.7971 605.726 29.8839 604.857 29.9706Z" fill="white"/>
<path d="M599.213 0C595.132 0 592.267 0.737338 590.574 2.25539C588.881 3.77344 588.099 5.98545 588.099 8.97818C588.099 11.9709 588.924 14.1395 590.574 15.5275C592.224 16.9154 595.089 17.6094 599.213 17.6094C603.294 17.6094 606.16 16.9154 607.853 15.5275C609.503 14.1395 610.328 11.9709 610.328 8.97818C610.328 5.98545 609.503 3.77344 607.853 2.25539C606.203 0.737338 603.294 0 599.213 0Z" fill="white"/>
<path d="M717.606 97.5456C717.476 92.818 717.432 88.047 717.432 83.3193C717.432 78.5917 717.389 74.2544 717.259 70.3942C716.911 56.1679 714.567 45.5416 710.225 38.5152C705.84 31.4888 698.113 27.9756 686.912 27.9756C677.621 27.9756 669.155 31.0117 661.557 37.0839C653.916 43.1561 648.663 51.0499 645.798 60.7655H644.321L646.622 30.1009H628.562C628.909 41.1609 629.039 58.4667 629.039 82.1049C629.039 105.743 628.779 123.005 628.215 133.935H646.622C646.188 123.439 645.971 108.085 645.971 87.8735V66.4907C648.837 58.9872 653.308 52.7849 659.386 47.9271C665.465 43.0693 672.064 40.6405 679.097 40.6405C685.522 40.6405 690.255 42.6356 693.337 46.6693C696.419 50.703 698.373 55.4306 699.155 60.8522C699.936 66.2738 700.327 72.5629 700.327 79.7194C700.327 92.4276 700.37 100.105 700.5 102.75V107.565L700.023 133.892H718.083C717.953 131.246 717.866 125.608 717.736 116.977C717.649 108.519 717.606 101.97 717.606 97.5456Z" fill="white"/>
<path d="M752.598 92.0805C758.329 95.2901 765.797 96.8949 775 96.8949C782.077 96.8949 788.372 95.507 793.886 92.6877C799.4 89.8685 803.698 85.9216 806.737 80.8469C809.776 75.7723 811.295 69.917 811.295 63.2809C813.51 56.775 816.462 51.7004 820.152 48.1438C823.842 44.5439 828.748 42.7656 834.826 42.7656L835 27.0212C827.142 27.0212 821.064 29.9272 816.766 35.7392C812.468 41.5511 810.123 49.1414 809.819 58.5099L808.473 58.3364C808.908 52.4811 807.866 47.233 805.304 42.5921C802.743 37.9512 798.879 34.3079 793.712 31.6621C788.503 29.0164 782.251 27.6718 774.957 27.6718C762.888 27.6718 753.597 30.6646 746.998 36.6934C740.399 42.7222 737.143 50.963 737.143 61.4593C737.143 73.8205 740.789 83.059 748.083 89.1311L737.49 105.7C736.839 106.697 736.491 107.998 736.491 109.69C736.491 112.336 737.186 114.895 738.575 117.323C739.965 119.752 741.571 120.967 743.481 120.967L799.356 120.793C804.219 120.793 807.692 121.357 809.732 122.441C811.773 123.526 813.206 126.041 813.944 129.902C813.727 131.55 812.945 133.328 811.643 135.193C810.297 137.058 808.734 138.663 806.824 140.007C804.392 141.873 800.919 143.434 796.361 144.648C791.846 145.863 786.419 146.47 780.123 146.47C772.265 146.47 765.623 145.299 760.239 143C754.813 140.701 750.471 137.145 747.128 132.417L732.367 139.227C735.58 146.297 741.224 151.675 749.299 155.361C757.374 159.048 765.927 160.957 775 161.087C786.809 161.217 797.012 159.482 805.608 155.969C814.161 152.412 820.63 147.945 824.928 142.567C829.226 137.145 831.397 131.767 831.397 126.345C831.397 122.702 830.441 119.536 828.488 116.803C826.534 114.114 824.407 112.032 822.019 110.601C819.631 109.169 818.025 108.432 817.113 108.432C792.366 109.516 769.096 110.167 747.302 110.254C745.522 110.254 744.653 109.473 744.653 107.955C744.653 107.088 745.044 106.09 745.826 104.962L752.598 92.0805ZM758.894 43.7198C762.975 40.9439 768.141 39.5994 774.306 39.5994C780.948 39.5994 786.245 41.768 790.239 46.0619C794.233 50.3558 796.187 55.6039 796.187 61.8063C796.187 69.4399 794.233 75.5121 790.369 80.0229C788.372 81.5843 785.984 82.7987 783.249 83.6662C780.471 84.5336 777.779 85.0107 775.131 85.0107C767.62 85.0107 761.846 82.9288 757.895 78.8084C753.901 74.688 751.947 68.9628 751.947 61.6761C751.904 54.3461 754.248 48.3607 758.894 43.7198Z" fill="white"/>
<path d="M89.0441 101.883C88.9138 97.1552 88.8704 92.3842 88.8704 87.6565C88.8704 82.9289 88.827 78.5916 88.6968 74.7314C88.3494 60.5051 86.005 49.8788 81.5767 42.8524C77.1484 35.826 69.3771 32.3128 58.2195 32.3128C52.4887 32.3128 46.8447 33.7007 41.2876 36.5199C35.7739 39.3392 30.868 43.2427 26.6134 48.1872C22.3587 53.1751 19.2328 54.4329 17.2357 60.7654H15.7596L17.5831 32.4429L17.7567 2.77588L0 4.29393C0.34732 23.5081 0.477565 48.9246 0.477565 71.9122C0.477565 93.3817 0.303905 114.071 0 133.892H18.0606C17.7133 123.439 17.5831 112.683 17.5831 101.536C17.4528 99.107 17.4094 95.4636 17.4094 90.6059V66.5773C21.0563 59.4208 25.8319 57.6425 31.7363 52.6113C37.6408 47.58 43.9359 45.0644 50.535 45.0644C56.9604 45.0644 61.6927 47.0595 64.7751 51.0932C67.8576 55.1269 69.8113 59.8545 70.5927 65.2761C71.3742 70.6977 71.7649 76.9868 71.7649 84.1433V103.011C71.7649 110.514 71.7215 115.589 71.5913 118.234L71.2874 133.805H89.4348C89.348 131.463 89.2612 128.47 89.1743 121.357C89.0875 112.856 89.0441 106.307 89.0441 101.883Z" fill="white"/>
</g>
<defs>
<clipPath id="clip0">
<rect width="835" height="161" fill="white"/>
</clipPath>
</defs>
</svg>
